HIERARCHY
ROOT Hips
{
	OFFSET 50.639400 -1.081548 51.754700
	CHANNELS 6 Xposition Yposition Zposition Xrotation Yrotation Zrotation
	JOINT spine
	{
		OFFSET 0.000000 -0.448574 7.800591
		CHANNELS 3 Xrotation Yrotation Zrotation
		JOINT spine1
		{
			OFFSET 0.000000 -0.000002 10.136398
			CHANNELS 3 Xrotation Yrotation Zrotation
			JOINT spine2
			{
				OFFSET 0.000000 -0.000002 9.712509
				CHANNELS 3 Xrotation Yrotation Zrotation
				JOINT Neck
				{
					OFFSET 0.000000 -1.188874 24.936104
					CHANNELS 3 Xrotation Yrotation Zrotation
					JOINT Head
					{
						OFFSET 0.000000 -0.000001 7.533844
						CHANNELS 3 Xrotation Yrotation Zrotation
						End Site
						{
							OFFSET 0.000000 6.014017 18.236099
						}
					}
				}
				JOINT RightShoulder
				{
					OFFSET -4.089649 0.569455 10.488800
					CHANNELS 3 Xrotation Yrotation Zrotation
					JOINT RightArm
					{
						OFFSET 0.000000 -0.000002 13.756996
						CHANNELS 3 Xrotation Yrotation Zrotation
						JOINT RightArmRoll
						{
							OFFSET 0.000000 -0.000001 6.944778
							CHANNELS 3 Xrotation Yrotation Zrotation
							JOINT RightForeArm
							{
								OFFSET 0.000000 -0.000003 20.227707
								CHANNELS 3 Xrotation Yrotation Zrotation
								JOINT RightForeArmRoll
								{
									OFFSET 0.000000 -0.000001 7.793121
									CHANNELS 3 Xrotation Yrotation Zrotation
									JOINT RightHand
									{
										OFFSET 0.000000 -0.000003 15.639099
										CHANNELS 3 Xrotation Yrotation Zrotation
										End Site
										{
											OFFSET 0.000000 0.000000 0.100006
										}
									}
								}
							}
						}
					}
				}
				JOINT LeftShoulder
				{
					OFFSET 4.089649 0.569455 10.488800
					CHANNELS 3 Xrotation Yrotation Zrotation
					JOINT LeftArm
					{
						OFFSET 0.000000 -0.000002 13.756996
						CHANNELS 3 Xrotation Yrotation Zrotation
						JOINT LeftArmRoll
						{
							OFFSET 0.000000 -0.000001 6.944778
							CHANNELS 3 Xrotation Yrotation Zrotation
							JOINT LeftForeArm
							{
								OFFSET 0.000000 -0.000003 20.227707
								CHANNELS 3 Xrotation Yrotation Zrotation
								JOINT LeftForeArmRoll
								{
									OFFSET 0.000000 -0.000001 7.793121
									CHANNELS 3 Xrotation Yrotation Zrotation
									JOINT LeftHand
									{
										OFFSET 0.000000 -0.000003 15.639099
										CHANNELS 3 Xrotation Yrotation Zrotation
										End Site
										{
											OFFSET 0.000000 0.000000 0.100006
										}
									}
								}
							}
						}
					}
				}
			}
		}
	}
	JOINT RightUpLeg
	{
		OFFSET -6.914158 1.063580 -1.267879
		CHANNELS 3 Xrotation Yrotation Zrotation
		JOINT RightUpLegRoll
		{
			OFFSET 0.000000 -0.000003 18.337795
			CHANNELS 3 Xrotation Yrotation Zrotation
			JOINT RightLeg
			{
				OFFSET 0.000000 0.000004 -22.708500
				CHANNELS 3 Xrotation Yrotation Zrotation
				JOINT RightLegRoll
				{
					OFFSET 0.000000 -0.000004 22.782803
					CHANNELS 3 Xrotation Yrotation Zrotation
					JOINT RightFoot
					{
						OFFSET 0.000000 -0.000003 18.962898
						CHANNELS 3 Xrotation Yrotation Zrotation
						JOINT RightToeBase
						{
							OFFSET 0.000000 -0.000003 15.851997
							CHANNELS 3 Xrotation Yrotation Zrotation
							End Site
							{
								OFFSET 0.006718 0.884891 7.677010
							}
						}
					}
				}
			}
		}
	}
	JOINT LeftUpLeg
	{
		OFFSET 6.914158 1.063580 -1.267879
		CHANNELS 3 Xrotation Yrotation Zrotation
		JOINT LeftUpLegRoll
		{
			OFFSET 0.000000 -0.000003 18.337902
			CHANNELS 3 Xrotation Yrotation Zrotation
			JOINT LeftLeg
			{
				OFFSET 0.000000 -0.000004 22.708405
				CHANNELS 3 Xrotation Yrotation Zrotation
				JOINT LeftLegRoll
				{
					OFFSET 0.000000 -0.000004 22.993401
					CHANNELS 3 Xrotation Yrotation Zrotation
					JOINT LeftFoot
					{
						OFFSET 0.000000 -0.000003 18.752205
						CHANNELS 3 Xrotation Yrotation Zrotation
						JOINT LeftToeBase
						{
							OFFSET 0.000000 -0.000003 15.852005
							CHANNELS 3 Xrotation Yrotation Zrotation
							End Site
							{
								OFFSET -0.030113 0.884892 7.677002
							}
						}
					}
				}
			}
		}
	}
}
MOTION
Frames: 8
Frame Time: 0.041667
45.706596 -6.118619 53.165798 -8.802382 7.783903 25.442564 3.489957 -1.374597 -0.695688 10.981317 -2.782976 -1.292246 12.627109 -2.798259 -1.258802 -8.837160 -14.617148 -7.496540 2.114622 10.233777 -5.394949 -27.368107 -79.034168 -31.299970 101.828797 -59.226872 72.119564 0.000000 -0.000000 -0.000002 68.062705 -5.813383 2.327463 0.000001 0.000005 -2.999982 -4.999812 -7.999898 0.000008 -11.021666 41.307478 11.978736 -26.159968 139.703501 49.661605 -0.000001 -0.000005 0.000003 56.712102 7.279866 -0.135325 -0.000000 0.000002 3.000001 -5.000222 7.998744 -0.000175 -81.342936 180.934088 10.340700 -179.999991 0.000007 -1.612999 77.829473 1.764101 -0.151016 -0.000003 -0.000004 2.199683 80.093646 6.042988 4.149398 25.456955 -7.355618 0.000001 -87.194154 181.067263 5.295544 -0.000005 -0.000005 -1.317070 -97.111247 -7.941703 -6.847273 0.000002 -0.000001 -1.903020 68.927817 -5.815969 -4.914613 25.456959 7.355601 -0.003871 
45.730202 -6.138371 53.163799 -8.808117 7.852722 25.468220 3.490978 -1.379986 -0.699051 10.982231 -2.794895 -1.298549 12.627941 -2.810252 -1.264953 -8.923989 -14.754535 -7.525251 2.090244 10.294595 -5.385107 -27.534740 -79.141648 -31.471166 101.514124 -59.285489 71.767543 -0.000001 0.000000 -0.000000 68.182657 -5.761819 2.293443 -0.000001 0.000010 -2.999980 -4.999812 -7.999895 0.000008 -11.040465 41.233825 11.998616 -26.120698 139.757241 49.674808 -0.000001 -0.000005 0.000003 56.699282 7.289953 -0.139010 0.000000 0.000000 3.000001 -5.000224 7.998744 -0.000176 -81.334542 180.982227 10.393624 -179.999991 0.000006 -1.611005 77.863214 1.730561 -0.190219 -0.000000 -0.000003 2.197309 80.088175 6.048489 4.129971 25.456957 -7.355615 0.000001 -87.210526 181.096045 5.343894 -0.000005 -0.000002 -1.316290 -97.114744 -7.958504 -6.866551 0.000002 -0.000002 -1.904070 68.935740 -5.815240 -4.916561 25.456962 7.355598 -0.003861 
45.738197 -6.137160 53.168201 -8.813685 7.921702 25.493690 3.492024 -1.385514 -0.702322 10.983048 -2.807149 -1.304644 12.628876 -2.822587 -1.270896 -9.009119 -14.891411 -7.553608 2.063217 10.356229 -5.374908 -27.706761 -79.250651 -31.647753 101.192162 -59.343778 71.406930 -0.000000 0.000001 -0.000000 68.304016 -5.710110 2.259007 0.000000 0.000005 -2.999981 -4.999809 -7.999896 0.000008 -11.058583 41.159437 12.017562 -26.081923 139.812074 49.688247 -0.000001 -0.000005 0.000004 56.685465 7.300178 -0.142779 -0.000004 0.000000 3.000002 -5.000223 7.998745 -0.000175 -81.325976 181.031036 10.446601 -179.999991 0.000008 -1.609994 77.896907 1.696840 -0.229356 -0.000002 -0.000003 2.195202 80.082971 6.054436 4.108865 25.456957 -7.355618 0.000001 -87.227356 181.125005 5.391526 -0.000005 -0.000007 -1.315510 -97.119184 -7.975284 -6.885918 0.000002 -0.000001 -1.905204 68.944298 -5.814578 -4.918290 25.456957 7.355594 -0.003863 
45.742195 -6.112071 53.200100 -8.818870 7.990836 25.518738 3.493038 -1.391163 -0.705475 10.983767 -2.819690 -1.310493 12.629617 -2.835197 -1.276606 -9.092696 -15.027868 -7.581666 2.034095 10.418979 -5.364396 -27.883213 -79.360569 -31.828828 100.864299 -59.401390 71.039609 -0.000000 0.000001 -0.000001 68.426222 -5.658439 2.224490 0.000000 0.000006 -2.999981 -4.999810 -7.999897 0.000008 -11.075973 41.084230 12.035507 -26.043974 139.866128 49.702467 -0.000001 -0.000005 0.000003 56.670445 7.310581 -0.146710 -0.000002 0.000000 3.000002 -5.000221 7.998743 -0.000174 -81.317411 181.080281 10.499304 -179.999991 0.000007 -1.608997 77.930737 1.662959 -0.268476 -0.000004 -0.000003 2.193291 80.078074 6.060682 4.086570 25.456952 -7.355615 0.000001 -87.244691 181.153952 5.438650 -0.000005 -0.000006 -1.314740 -97.124286 -7.992001 -6.904326 0.000002 -0.000002 -1.906397 68.953499 -5.814008 -4.919801 25.456962 7.355597 -0.003852 
45.756596 -6.115830 53.210499 -8.823467 8.060100 25.542935 3.493952 -1.396910 -0.708500 10.984291 -2.832449 -1.316086 12.630063 -2.848027 -1.282041 -9.174894 -15.163899 -7.609428 2.003458 10.483034 -5.353662 -28.064767 -79.471403 -32.014958 100.532106 -59.458224 70.667828 -0.000001 -0.000000 0.000001 68.548277 -5.607003 2.189907 0.000003 0.000008 -2.999981 -4.999812 -7.999897 0.000008 -11.092639 41.008391 12.052472 -26.006341 139.921288 49.716418 -0.000001 -0.000005 0.000003 56.654298 7.320979 -0.150761 -0.000006 0.000002 3.000002 -5.000221 7.998746 -0.000174 -81.309147 181.129814 10.551257 -179.999991 0.000007 -1.607999 77.964410 1.628940 -0.307559 -0.000000 -0.000002 2.191531 80.073340 6.067197 4.063487 25.456957 -7.355618 0.000001 -87.262531 181.182857 5.485260 -0.000004 -0.000004 -1.313991 -97.129853 -8.008400 -6.922736 0.000002 -0.000002 -1.907669 68.962979 -5.813679 -4.920640 25.456959 7.355597 -0.003843 
45.760895 -6.084782 53.232899 -8.827243 8.129488 25.566134 3.494699 -1.402748 -0.711380 10.984515 -2.845377 -1.321388 12.630209 -2.861012 -1.287188 -9.255853 -15.299709 -7.636939 1.971840 10.548893 -5.342773 -28.250364 -79.582564 -32.205148 100.196997 -59.514075 70.293390 -0.000001 -0.000000 -0.000000 68.669424 -5.556041 2.155472 0.000000 0.000006 -2.999980 -4.999811 -7.999898 0.000008 -11.108559 40.931927 12.068423 -25.968695 139.977405 49.729361 -0.000001 -0.000005 0.000003 56.637011 7.331318 -0.154747 -0.000001 -0.000000 3.000001 -5.000219 7.998746 -0.000175 -81.301244 181.179292 10.603193 -179.999991 0.000006 -1.607002 77.998144 1.594769 -0.346595 -0.000001 -0.000003 2.189880 80.068791 6.073838 4.039809 25.456957 -7.355618 0.000002 -87.281027 181.211585 5.531157 -0.000004 -0.000006 -1.313271 -97.135487 -8.024356 -6.941139 0.000002 -0.000001 -1.909030 68.972630 -5.813643 -4.920827 25.456959 7.355594 -0.003842 
45.775394 -6.085901 53.244102 -8.829993 8.198979 25.587917 3.495194 -1.408667 -0.714094 10.984241 -2.858417 -1.326362 12.629956 -2.874113 -1.292011 -9.335724 -15.435183 -7.664207 1.939843 10.616755 -5.331819 -28.440110 -79.693828 -32.399436 99.860842 -59.568641 69.918939 -0.000001 0.000000 0.000003 68.788782 -5.505792 2.121395 0.000003 0.000011 -2.999978 -4.999812 -7.999894 0.000010 -11.123726 40.855046 12.083356 -25.931276 140.033577 49.741484 -0.000001 -0.000005 0.000003 56.618361 7.341525 -0.158773 -0.000002 0.000000 3.000001 -5.000224 7.998746 -0.000175 -81.293895 181.228688 10.653631 -179.999991 0.000009 -1.606005 78.031824 1.560467 -0.385626 0.000000 -0.000003 2.188281 80.064324 6.080592 4.015739 25.456953 -7.355618 0.000002 -87.300247 181.240026 5.576116 -0.000005 -0.000003 -1.312590 -97.140555 -8.040017 -6.958463 0.000002 -0.000002 -1.910457 68.982397 -5.813994 -4.919976 25.456964 7.355601 -0.003832 
45.805191 -6.100202 53.246105 -8.831508 8.268566 25.608133 3.495388 -1.414654 -0.716637 10.983367 -2.871519 -1.330987 12.629199 -2.887267 -1.296486 -9.414651 -15.570422 -7.691258 1.908008 10.686913 -5.320863 -28.633598 -79.804900 -32.597457 99.524817 -59.621787 69.546065 -0.000001 0.000000 -0.000003 68.905592 -5.456464 2.087710 0.000000 0.000009 -2.999979 -4.999813 -7.999897 0.000007 -11.138115 40.777746 12.097244 -25.894041 140.089830 49.752665 -0.000001 -0.000005 0.000003 56.598537 7.351506 -0.162782 0.000002 0.000001 3.000001 -5.000225 7.998746 -0.000175 -81.287324 181.277524 10.704430 -179.999991 0.000007 -1.604994 78.065551 1.526003 -0.424645 -0.000003 -0.000003 2.186670 80.059967 6.087342 3.991657 25.456952 -7.355616 0.000002 -87.320191 181.268139 5.619169 -0.000005 -0.000005 -1.311970 -97.145207 -8.054943 -6.976736 0.000002 -0.000001 -1.911962 68.991973 -5.814820 -4.917830 25.456962 7.355594 -0.003833 
